<svg width="100" height="100" viewBox="0 0 100 100" xmlns="http://www.w3.org/2000/svg">
  <path d="M0 0h10v10H0zm20 20h10v10H20zm20 0h10v10H40zm20 0h10v10H60zm20 0h10v10H80zM10 10h10v10H10zm20 0h10v10H30zm20 0h10v10H50zm20 0h10v10H70zm20 0h10v10H90zM0 20h10v10H0zm20 20h10v10H20zm20 0h10v10H40zm20 0h10v10H60zm20 0h10v10H80zM10 30h10v10H10zm20 0h10v10H30zm20 0h10v10H50zm20 0h10v10H70zm20 0h10v10H90zM0 40h10v10H0zm20 20h10v10H20zm20 0h10v10H40zm20 0h10v10H60zm20 0h10v10H80zM10 50h10v10H10zm20 0h10v10H30zm20 0h10v10H50zm20 0h10v10H70zm20 0h10v10H90zM0 60h10v10H0zm20 20h10v10H20zm20 0h10v10H40zm20 0h10v10H60zm20 0h10v10H80zM10 70h10v10H10zm20 0h10v10H30zm20 0h10v10H50zm20 0h10v10H70zm20 0h10v10H90zM0 80h10v10H0zm10 10h10v10H10zm20 0h10v10H30zm20 0h10v10H50zm20 0h10v10H70zm20 0h10v10H90z" fill="#013220" fill-opacity="0.05"/>
</svg>